<svg width="89" height="92" viewBox="0 0 89 92" fill="none" xmlns="http://www.w3.org/2000/svg">
<path d="M3.98644 64.0145L7.03831 70.2881C10.3521 75.9175 14.8798 80.7452 20.2636 84.4083H69.6623C75.2092 80.6343 79.849 75.6248 83.187 69.7749L86.0908 63.6165C87.9374 58.7559 88.9513 53.4848 88.9513 47.9759C88.9513 23.6622 69.257 3.95215 44.9629 3.95215C20.6688 3.95215 0.974609 23.6622 0.974609 47.9759C0.974609 53.6352 2.04271 59.0445 3.98644 64.0145Z" fill="#FFC839"/>
<path d="M66.3776 62.4845C67.5064 63.3619 68.8995 63.8382 70.3344 63.8382C71.7691 63.8382 73.1622 63.3617 74.2909 62.4845C75.1237 61.8372 76.0115 60.9568 76.79 59.8492C76.5657 59.7838 76.3393 59.7216 76.1095 59.6641C75.8698 59.6039 75.6591 59.4596 75.5231 59.2677C74.8962 58.3824 74.7224 57.0139 74.6884 56.0215C74.2486 56.5341 73.787 56.963 73.346 57.3057C71.5772 58.6805 69.0892 58.6787 67.3227 57.3057C66.8818 56.963 66.4201 56.5341 65.9803 56.0215C65.9453 57.036 65.7648 58.4437 65.1032 59.3261C64.9903 59.4767 64.8163 59.5998 64.6078 59.6515C64.3619 59.7124 64.1195 59.7795 63.8789 59.8497C64.6572 60.957 65.5449 61.8374 66.3776 62.4845Z" fill="#FCAD6D"/>
<path d="M67.3227 57.3057C66.8818 56.963 66.4202 56.5341 65.9803 56.0215C65.9453 57.036 65.7648 58.4437 65.1032 59.3261C64.9903 59.4767 64.8163 59.5998 64.6078 59.6515C64.3619 59.7124 64.1195 59.7795 63.8789 59.8497C64.6574 60.9571 65.5451 61.8376 66.3776 62.4847C66.8753 62.8715 67.4245 63.1801 68.0059 63.4047C69.5647 62.0974 70.1925 60.1173 70.411 58.3332C69.3214 58.3499 68.2274 58.009 67.3227 57.3057Z" fill="#FCAD6D"/>
<path d="M86.0914 63.6165C85.1851 62.8961 84.012 62.3957 82.4921 62.2714C81.9303 62.2254 81.6314 62.0072 80.9692 61.6336C79.5898 60.8551 78.1616 60.2342 76.6051 59.7976C75.8449 60.8912 74.9727 61.7573 74.156 62.3919C73.066 63.239 71.7208 63.6991 70.3355 63.6991C68.9501 63.6991 67.605 63.239 66.515 62.3919C65.6981 61.7569 64.8255 60.8906 64.0653 59.7969C62.5155 60.2324 61.0772 60.8572 59.7017 61.6336C59.0395 62.0074 58.7406 62.2255 58.1786 62.2714C53.4014 62.6622 52.0367 66.7598 51.6846 69.7751H83.1879C84.3077 67.8122 85.2793 65.7539 86.0914 63.6165Z" fill="#FF4155"/>
<path d="M66.4543 64.3309C67.1118 64.0655 67.6657 63.7121 68.1321 63.2966C67.5542 63.0785 67.0082 62.7754 66.515 62.3919C65.6981 61.7569 64.8255 60.8906 64.0653 59.7969C62.5155 60.2324 61.0772 60.8572 59.7017 61.6336C59.0395 62.0074 58.7406 62.2255 58.1786 62.2714C53.4014 62.6622 52.0367 66.7598 51.6846 69.7751H58.4417C58.5937 64.2853 61.2826 66.4182 66.4543 64.3309Z" fill="#E80054"/>
<path d="M15.7076 62.9487C16.8157 63.8098 18.1829 64.2777 19.5914 64.2777C20.9998 64.2777 22.3672 63.81 23.4751 62.9487C24.2994 62.3082 25.179 61.4351 25.9478 60.3348C25.7559 60.28 25.5627 60.227 25.3666 60.1778C25.1269 60.1178 24.9161 59.9733 24.7802 59.7814C24.1533 58.8961 23.9797 57.5276 23.9455 56.5352C23.5057 57.0478 23.0441 57.4767 22.6031 57.8194C20.8342 59.1942 18.3463 59.1924 16.5798 57.8194C16.1387 57.4767 15.6772 57.0478 15.2374 56.5352C15.2023 57.5497 15.0219 58.9573 14.3603 59.8398C14.2474 59.9904 14.0734 60.1135 13.8649 60.165C13.6525 60.2177 13.4426 60.2743 13.2344 60.3338C14.0032 61.4345 14.8831 62.308 15.7076 62.9487Z" fill="#FCAD6D"/>
<path d="M19.4909 58.8448C18.4603 58.8238 17.4355 58.4834 16.5798 57.8184C16.1387 57.4757 15.6772 57.0468 15.2374 56.5342C15.2023 57.5487 15.0219 58.9564 14.3603 59.8388C14.2474 59.9894 14.0734 60.1125 13.8649 60.1642C13.6525 60.2169 13.4426 60.2735 13.2344 60.333C14.0034 61.4335 14.8833 62.307 15.7078 62.9478C15.9634 63.1465 16.2333 63.3231 16.5139 63.4791C18.4828 61.9728 19.2446 60.26 19.4909 58.8448Z" fill="#FD995B"/>
<path d="M31.7481 62.785C31.1863 62.739 30.8874 62.5209 30.2251 62.1473C28.8456 61.3689 27.4174 60.7479 25.8609 60.3113C25.1007 61.4047 24.2285 62.2709 23.4118 62.9056C22.3218 63.7526 20.9766 64.2128 19.5913 64.2128C18.2059 64.2128 16.8608 63.7526 15.7708 62.9056C14.9539 62.2708 14.0813 61.4043 13.3211 60.3105C11.7713 60.7461 10.3332 61.3709 8.95751 62.1473C8.29535 62.5211 7.99641 62.7392 7.43445 62.785C5.99739 62.9025 4.87111 63.3571 3.98633 64.0152C4.83952 66.1969 5.86327 68.2928 7.0382 70.2888H38.242C37.8901 67.2734 36.5254 63.176 31.7481 62.785Z" fill="#73C3F9"/>
<path d="M8.65193 70.2888C8.76001 65.6313 9.75109 67.4555 15.2241 64.3316C15.7286 64.0436 16.1755 63.7428 16.5734 63.4337C16.294 63.2792 16.0252 63.1034 15.7708 62.9058C14.9539 62.2709 14.0813 61.4045 13.3211 60.3105C11.7713 60.7463 10.3332 61.3711 8.95751 62.1473C8.29535 62.5211 7.99642 62.7392 7.43445 62.785C5.99739 62.9025 4.87111 63.3571 3.98633 64.015C4.83952 66.1968 5.86327 68.2926 7.0382 70.2888H8.65193Z" fill="#4FABF7"/>
<path d="M38.4838 83.2396C40.3322 84.6762 42.6133 85.4564 44.9627 85.4564C47.3118 85.4564 49.5929 84.6762 51.4413 83.2396C52.7997 82.1838 54.2477 80.7483 55.519 78.944C55.1334 78.8305 54.7438 78.7223 54.3479 78.6229C53.9583 78.5252 53.6159 78.2907 53.3949 77.9787C52.376 76.54 52.0937 74.316 52.0383 72.7031C51.3235 73.5363 50.5734 74.2332 49.8566 74.7902C46.9821 77.0242 42.9387 77.0214 40.068 74.7902C39.3512 74.2332 38.6011 73.5363 37.8863 72.7031C37.8296 74.3518 37.5364 76.6394 36.4611 78.0736C36.2776 78.3184 35.995 78.5183 35.656 78.6024C35.2338 78.707 34.8183 78.8229 34.4062 78.9446C35.6778 80.7484 37.1256 82.184 38.4838 83.2396Z" fill="#FCAD6D"/>
<path d="M44.6176 76.4568C43.0046 76.3873 41.409 75.8317 40.0689 74.7902C39.3522 74.2332 38.6021 73.5363 37.8873 72.7031C37.8306 74.3518 37.5374 76.6394 36.4621 78.0736C36.2786 78.3184 35.996 78.5184 35.657 78.6024C35.2347 78.707 34.8193 78.8229 34.4072 78.9446C35.6786 80.7484 37.1264 82.184 38.4846 83.2396C39.1626 83.7665 39.8991 84.2042 40.6754 84.5483C43.0016 82.2312 44.1076 79.1579 44.6176 76.4568Z" fill="#FD995B"/>
<path d="M62.244 81.8237C60.0024 80.5585 57.6811 79.5495 55.1519 78.8399C53.9166 80.6171 52.499 82.0245 51.1718 83.0561C49.4004 84.4329 47.2143 85.1806 44.963 85.1806C42.7115 85.1806 40.5256 84.4329 38.7542 83.0561C37.4267 82.0244 36.0087 80.6163 34.7732 78.8389C32.2546 79.5468 29.9173 80.5621 27.6818 81.8237C26.6057 82.431 26.1198 82.7855 25.2068 82.8601C23.2155 83.0231 21.5912 83.5842 20.2637 84.4085C27.3048 89.1991 35.8067 91.9999 44.9628 91.9999C54.119 91.9999 62.6209 89.1991 69.6622 84.4085C68.3348 83.5842 66.7105 83.0231 64.719 82.8601C63.8058 82.7855 63.3202 82.431 62.244 81.8237Z" fill="#3C58A0"/>
<path d="M38.7542 83.0561C37.4267 82.0244 36.0087 80.6163 34.7732 78.8389C32.2546 79.5468 29.9173 80.5621 27.6818 81.8237C26.6057 82.431 26.1198 82.7855 25.2068 82.8601C23.2155 83.0231 21.5912 83.5842 20.2637 84.4085C23.6306 86.6991 27.3323 88.5335 31.279 89.8257C32.3695 89.2458 34.4136 88.5632 38.2422 86.3963C39.2722 85.8134 40.1468 85.1098 40.8912 84.3278C40.1333 83.9954 39.415 83.5695 38.7542 83.0561Z" fill="#2A428C"/>
<path d="M43.8415 9.99979C43.8415 7.6847 45.734 5.79061 48.0472 5.79061H68.0718V4.20918C68.0718 1.89409 66.1791 0 63.8659 0H42.1218C39.8086 0 37.916 1.89409 37.916 4.20918V21.4881C37.916 23.8032 39.8086 25.6973 42.1218 25.6973H43.8413V9.99979H43.8415Z" fill="#4FABF7"/>
<path d="M54.1226 0H42.1218C39.8086 0 37.916 1.89409 37.916 4.20918V21.4881C37.916 23.8032 39.8086 25.6973 42.1218 25.6973H43.8413V9.99979C43.8413 7.6847 45.7338 5.79061 48.0471 5.79061H54.0334C54.0865 5.61721 54.1226 5.52198 54.1226 5.52198C51.1388 2.53575 54.1226 0 54.1226 0V0Z" fill="#1886EA"/>
<path d="M69.5233 5.52148H47.779C45.4658 5.52148 43.5732 7.41557 43.5732 9.73066V27.0096C43.5732 29.3247 45.4658 31.2188 47.779 31.2188C48.3703 31.2188 48.6979 31.8983 48.3363 32.3664C47.951 32.8652 47.5192 33.3303 47.0399 33.7529C46.1454 34.5414 46.6486 36.158 47.7828 36.1544C50.6655 36.1454 53.3673 34.681 55.206 32.2956C55.7227 31.6252 56.5093 31.2186 57.3553 31.2186H69.5229C71.8361 31.2186 73.7287 29.3245 73.7287 27.0094V9.73066C73.7291 7.41557 71.8365 5.52148 69.5233 5.52148Z" fill="#E9EFFF"/>
<path d="M47.779 5.52166C45.4658 5.52166 43.5732 7.41575 43.5732 9.73084V27.0098C43.5732 29.3249 45.4658 31.219 47.779 31.219C48.3703 31.219 48.6979 31.8985 48.3363 32.3666C47.951 32.8654 47.5192 33.3305 47.0399 33.7531C46.1454 34.5416 46.6486 36.1582 47.7828 36.1546C50.6655 36.1456 53.3673 34.6812 55.206 32.2958C55.7227 31.6254 56.5093 31.2188 57.3553 31.2188H62.7881C56.2527 27.3974 59.1245 20.6638 59.1245 20.6638L58.2704 16.8078C51.3756 12.7624 54.1226 5.52148 54.1226 5.52148H47.779V5.52166Z" fill="#BEC8F7"/>
<path d="M51.8318 20.7816C52.9179 20.5246 53.5902 19.4352 53.3335 18.3482C53.0767 17.2612 51.9882 16.5884 50.9021 16.8453C49.816 17.1023 49.1437 18.1917 49.4004 19.2787C49.6571 20.3656 50.7457 21.0385 51.8318 20.7816Z" fill="#1886EA"/>
<path d="M58.7254 20.7796C59.8114 20.5227 60.4838 19.4332 60.227 18.3463C59.9703 17.2593 58.8817 16.5864 57.7956 16.8434C56.7095 17.1003 56.0372 18.1898 56.294 19.2767C56.5507 20.3637 57.6393 21.0366 58.7254 20.7796Z" fill="#1886EA"/>
<path d="M66.5856 20.267C67.3748 19.4772 67.3748 18.1966 66.5856 17.4068C65.7964 16.617 64.5169 16.617 63.7278 17.4068C62.9386 18.1966 62.9386 19.4772 63.7278 20.267C64.5169 21.0568 65.7964 21.0568 66.5856 20.267Z" fill="#4FABF7"/>
<path d="M42.5972 39.1975C35.4909 40.1665 34.8155 44.1989 34.8123 45.6783C34.8115 45.9886 34.6399 46.2761 34.3611 46.4117C30.6646 48.2115 32.6576 56.885 32.6576 56.885C33.0289 56.9098 33.5856 57.2286 33.8754 57.3691C33.9463 56.9271 34.0621 56.492 34.2259 56.0714C34.3505 55.7508 34.5063 55.427 34.7011 55.1212C35.0392 54.5904 35.1931 53.9644 35.1471 53.3383C35.0142 51.5289 34.9101 48.1317 37.2966 47.057C39.3184 46.1465 41.7986 46.6737 43.3802 47.2C44.4074 47.5418 45.52 47.5418 46.5472 47.2C48.1288 46.6737 50.6088 46.1465 52.6308 47.057C55.0106 48.1287 54.9128 51.5086 54.7815 53.3229C54.7359 53.9536 54.8857 54.5863 55.2263 55.1212C55.4273 55.4369 55.587 55.7719 55.7135 56.1023C55.871 56.5132 55.9829 56.9378 56.0522 57.3691C56.4175 57.1919 57.1077 56.8307 57.5544 56.8938C57.6092 54.9972 57.784 52.9527 57.784 52.9527C59.8899 42.6302 50.2488 38.154 42.5972 39.1975Z" fill="#2A428C"/>
<path d="M42.5972 39.1979C35.4909 40.1669 34.8155 44.1993 34.8123 45.6787C34.8115 45.989 34.6399 46.2765 34.3611 46.4121C30.6646 48.2119 32.6576 56.8854 32.6576 56.8854C33.0289 56.9102 33.5856 57.229 33.8754 57.3695C33.9463 56.9275 34.0621 56.4924 34.2259 56.0718C34.3505 55.7512 34.5063 55.4274 34.7011 55.1216C35.0392 54.5908 35.1931 53.9648 35.1471 53.3387C35.0142 51.5293 34.9101 48.1321 37.2966 47.0574C39.3184 46.1469 41.7986 46.6741 43.3802 47.2004C43.8129 47.3444 44.2609 47.424 44.711 47.4468C44.642 47.3284 44.5684 47.2107 44.486 47.0948C41.4374 42.8063 45.6751 39.6814 46.4929 39.1353C45.1814 39.0047 43.8621 39.0254 42.5972 39.1979Z" fill="#1C2E7A"/>
<path d="M58.1841 57.1402C57.6306 56.6326 56.5282 56.8899 56.0513 57.2007C56.1558 57.8516 56.1618 58.5175 56.0714 59.175L55.5089 63.2753C55.5089 63.6057 55.4985 63.93 55.4795 64.2488C56.8512 64.6628 57.5326 63.4305 57.6473 62.5847C57.6967 62.2207 57.7775 61.8618 57.8895 61.5116C58.2545 60.371 59.5709 58.412 58.1841 57.1402Z" fill="#FCAD6D"/>
<path d="M31.7422 57.1402C32.2958 56.6326 33.3981 56.8899 33.8748 57.2007C33.7703 57.8516 33.7644 58.5175 33.8547 59.175L34.4172 63.2753C34.4172 63.6057 34.4276 63.93 34.4468 64.2488C33.0751 64.6628 32.3938 63.4305 32.2789 62.5847C32.2295 62.2207 32.1487 61.8618 32.0367 61.5116C31.6718 60.371 30.3554 58.412 31.7422 57.1402Z" fill="#FD995B"/>
<path d="M55.8811 55.9339C55.7545 55.6032 55.5949 55.2685 55.3938 54.9528C55.0533 54.4178 54.9033 53.7853 54.9491 53.1545C55.0804 51.3402 55.01 47.7919 52.6303 46.7202C50.6085 45.8097 48.1286 46.3369 46.5471 46.8633C45.5199 47.205 44.4067 47.205 43.3796 46.8633C41.798 46.3369 39.3179 45.8097 37.2963 46.7202C34.9098 47.7949 34.8457 51.3605 34.9786 53.1699C35.0245 53.796 34.8707 54.422 34.5326 54.9528C34.3378 55.2586 34.1819 55.5824 34.0573 55.903C33.653 56.9426 33.535 58.07 33.6866 59.174L34.2493 63.2754C34.2493 69.1716 37.3941 73.1792 40.0693 75.2582C41.4656 76.3433 43.1889 76.9329 44.9635 76.9329C46.7383 76.9329 48.4613 76.3435 49.8576 75.2582C52.5328 73.1792 55.6777 69.1714 55.6777 63.2754L56.2402 59.1751C56.3898 58.0819 56.2761 56.9653 55.8811 55.9339Z" fill="#F9BA8F"/>
<path d="M47.8821 75.2582C45.207 73.1792 42.0621 69.1714 42.0621 63.2754L41.4994 59.174C41.3479 58.07 41.4658 56.9426 41.8701 55.903C41.9947 55.5824 42.1506 55.2588 42.3454 54.9528C42.6835 54.422 42.8373 53.7958 42.7914 53.1699C42.6713 51.5339 42.7126 48.4625 44.4855 47.0943C44.1114 47.0586 43.7401 46.9833 43.3796 46.8633C41.798 46.3369 39.3179 45.8097 37.2963 46.7202C34.9098 47.7949 34.8457 51.3605 34.9786 53.1699C35.0245 53.796 34.8707 54.422 34.5326 54.9528C34.3378 55.2586 34.1819 55.5824 34.0573 55.903C33.653 56.9426 33.535 58.07 33.6866 59.174L34.2493 63.2754C34.2493 69.1716 37.3941 73.1792 40.0693 75.2582C41.4656 76.3433 43.1889 76.9329 44.9635 76.9329C46.3397 76.9329 47.6841 76.5769 48.87 75.9117C48.5263 75.7191 48.1956 75.5018 47.8821 75.2582Z" fill="#FCAD6D"/>
<path d="M68.8782 35.4043C64.5053 36.0007 64.0896 38.482 64.0876 39.3923C64.0873 39.5833 63.9815 39.7601 63.8101 39.8437C61.5354 40.9511 62.7617 46.2885 62.7617 46.2885C62.9901 46.3038 63.3328 46.5 63.5111 46.5865C63.5548 46.3144 63.626 46.0467 63.7268 45.7879C63.8034 45.5906 63.8993 45.3915 64.0192 45.2032C64.2273 44.8765 64.3219 44.4913 64.2938 44.106C64.2121 42.9925 64.1478 40.902 65.6165 40.2408C66.8607 39.6805 68.3868 40.0049 69.3601 40.3288C69.9921 40.5393 70.6769 40.5393 71.3088 40.3288C72.2822 40.0049 73.8083 39.6805 75.0525 40.2408C76.5168 40.9002 76.4567 42.9801 76.3759 44.0965C76.3477 44.4847 76.44 44.8739 76.6495 45.203C76.7732 45.3973 76.8714 45.6034 76.9494 45.8068C77.0461 46.0598 77.1151 46.3211 77.1576 46.5863C77.3824 46.4772 77.8072 46.2549 78.0821 46.2939C78.1157 45.1269 78.2234 43.8687 78.2234 43.8687C79.5195 37.5167 73.5867 34.7623 68.8782 35.4043Z" fill="#2A428C"/>
<path d="M68.8782 35.405C64.5053 36.0014 64.0896 38.4827 64.0876 39.393C64.0873 39.584 63.9815 39.7608 63.8101 39.8443C61.5354 40.9517 62.7617 46.2892 62.7617 46.2892C62.9901 46.3045 63.3328 46.5007 63.5111 46.5871C63.5548 46.3151 63.626 46.0473 63.7268 45.7886C63.8034 45.5913 63.8993 45.392 64.0192 45.2039C64.2273 44.8772 64.3219 44.4919 64.2938 44.1067C64.2121 42.9932 64.1478 40.9027 65.6164 40.2414C66.8607 39.6812 68.3868 40.0055 69.3601 40.3295C69.6263 40.4181 69.9019 40.4671 70.179 40.4811C70.1364 40.4082 70.0912 40.336 70.0406 40.2646C68.1645 37.6257 70.7722 35.7027 71.2756 35.3667C70.4684 35.286 69.6565 35.2988 68.8782 35.405Z" fill="#1C2E7A"/>
<path d="M78.47 46.4455C78.1294 46.1332 77.4509 46.2915 77.1576 46.4827C77.2218 46.8832 77.2254 47.2929 77.17 47.6976L76.8238 50.2208C76.8238 50.4242 76.8173 50.6236 76.8057 50.8198C77.6497 51.0746 78.0691 50.3162 78.1397 49.7958C78.17 49.5717 78.2197 49.3509 78.2887 49.1354C78.5135 48.4336 79.3234 47.2281 78.47 46.4455Z" fill="#FCAD6D"/>
<path d="M62.1986 46.4455C62.5392 46.1332 63.2177 46.2915 63.511 46.4827C63.4468 46.8832 63.4432 47.2929 63.4987 47.6976L63.8448 50.2208C63.8448 50.4242 63.8513 50.6236 63.863 50.8198C63.0189 51.0746 62.5995 50.3162 62.529 49.7958C62.4986 49.5717 62.4489 49.3509 62.3799 49.1354C62.1553 48.4336 61.3452 47.2281 62.1986 46.4455Z" fill="#FD995B"/>
<path d="M77.0525 45.7036C76.9746 45.5002 76.8764 45.2941 76.7527 45.0998C76.5432 44.7706 76.4509 44.3814 76.4791 43.9933C76.5599 42.8769 76.5166 40.6933 75.0521 40.0339C73.808 39.4736 72.2819 39.798 71.3086 40.1219C70.6766 40.3323 69.9917 40.3323 69.3595 40.1219C68.3862 39.7981 66.8601 39.4736 65.616 40.0339C64.1474 40.6951 64.108 42.8893 64.1897 44.0028C64.2181 44.3881 64.1233 44.7733 63.9152 45.1C63.7953 45.2883 63.6994 45.4874 63.6227 45.6847C63.3739 46.3244 63.3014 47.0182 63.3945 47.6976L63.7407 50.2213C63.7407 53.8495 65.676 56.3157 67.322 57.5951C68.1813 58.2628 69.2417 58.6256 70.3337 58.6256C71.4258 58.6256 72.4862 58.2628 73.3453 57.5951C74.9916 56.3157 76.9267 53.8495 76.9267 50.2213L77.2728 47.6981C77.3657 47.0252 77.2956 46.3382 77.0525 45.7036Z" fill="#F9BA8F"/>
<path d="M72.1308 57.5953C70.4846 56.3159 68.5495 53.8497 68.5495 50.2215L68.2033 47.6977C68.1101 47.0183 68.1827 46.3246 68.4315 45.6849C68.5082 45.4876 68.604 45.2885 68.724 45.1002C68.9321 44.7735 69.0267 44.3883 68.9985 44.003C68.9245 42.9962 68.95 41.1061 70.0411 40.2642C69.8108 40.2423 69.5824 40.1958 69.3605 40.1219C68.3872 39.798 66.861 39.4736 65.617 40.0339C64.1483 40.6951 64.109 42.8893 64.1907 44.0028C64.2191 44.3881 64.1243 44.7733 63.9162 45.1C63.7962 45.2883 63.7004 45.4874 63.6237 45.6847C63.3749 46.3244 63.3023 47.0182 63.3955 47.6976L63.7417 50.2213C63.7417 53.8495 65.677 56.3157 67.323 57.5951C68.1823 58.2628 69.2427 58.6256 70.3347 58.6256C71.1816 58.6256 72.0089 58.4066 72.7386 57.9973C72.5274 57.8788 72.3238 57.7452 72.1308 57.5953Z" fill="#FCAD6D"/>
<path d="M18.135 35.917C13.7621 36.5134 13.3465 38.9947 13.3445 39.905C13.3441 40.096 13.2384 40.2728 13.0669 40.3564C10.7923 41.4638 12.0186 46.8012 12.0186 46.8012C12.2469 46.8165 12.5895 47.0127 12.768 47.0992C12.8116 46.8271 12.8829 46.5594 12.9836 46.3006C13.0603 46.1033 13.1561 45.9042 13.2761 45.7159C13.4842 45.3893 13.5788 45.004 13.5506 44.6188C13.4689 43.5052 13.4046 41.4147 14.8733 40.7535C16.1173 40.1932 17.6436 40.5176 18.6169 40.8415C19.2489 41.052 19.9337 41.052 20.5657 40.8415C21.539 40.5176 23.0651 40.1932 24.3093 40.7535C25.7737 41.4129 25.7135 43.4928 25.6327 44.6092C25.6046 44.9974 25.6968 45.3867 25.9064 45.7157C26.0301 45.91 26.1283 46.1161 26.2062 46.3195C26.303 46.5725 26.3719 46.8338 26.4145 47.099C26.6393 46.9899 27.0641 46.7676 27.3389 46.8066C27.3727 45.6396 27.4802 44.3814 27.4802 44.3814C28.7762 38.0294 22.8434 35.275 18.135 35.917Z" fill="#2A428C"/>
<path d="M18.135 35.9176C13.7621 36.514 13.3465 38.9953 13.3445 39.9056C13.3441 40.0966 13.2384 40.2734 13.0669 40.357C10.7923 41.4644 12.0186 46.8018 12.0186 46.8018C12.2469 46.8171 12.5895 47.0133 12.768 47.0998C12.8116 46.8277 12.8829 46.56 12.9836 46.3012C13.0603 46.1039 13.1561 45.9048 13.2761 45.7165C13.4842 45.3898 13.5788 45.0046 13.5506 44.6193C13.4689 43.5058 13.4046 41.4153 14.8733 40.7541C16.1173 40.1938 17.6436 40.5182 18.6169 40.8421C18.8832 40.9307 19.1588 40.9798 19.4358 40.9936C19.3933 40.9207 19.348 40.8484 19.2974 40.7771C17.4214 38.1382 20.029 36.2152 20.5325 35.8792C19.7251 35.7989 18.9134 35.8114 18.135 35.9176Z" fill="#1C2E7A"/>
<path d="M27.7267 46.9582C27.3861 46.6459 26.7076 46.8042 26.4144 46.9954C26.4787 47.3959 26.4823 47.8056 26.4268 48.2103L26.0806 50.7335C26.0806 50.9369 26.0742 51.1363 26.0625 51.3325C26.9065 51.5873 27.3259 50.8291 27.3965 50.3085C27.4268 50.0844 27.4766 49.8636 27.5455 49.6481C27.7699 48.9463 28.58 47.7409 27.7267 46.9582Z" fill="#FCAD6D"/>
<path d="M11.4555 46.9582C11.7961 46.6459 12.4746 46.8042 12.7679 46.9954C12.7037 47.3959 12.7001 47.8056 12.7556 48.2103L13.1017 50.7335C13.1017 50.9369 13.1082 51.1363 13.1198 51.3325C12.2758 51.5873 11.8564 50.8291 11.7858 50.3085C11.7555 50.0844 11.7058 49.8636 11.6368 49.6481C11.412 48.9463 10.6021 47.7409 11.4555 46.9582Z" fill="#FD995B"/>
<path d="M26.3096 46.2163C26.2316 46.0129 26.1334 45.8068 26.0097 45.6125C25.8 45.2833 25.7079 44.8941 25.7359 44.506C25.8167 43.3896 25.7734 41.206 24.3089 40.5466C23.0649 39.9863 21.5387 40.3107 20.5654 40.6346C19.9334 40.845 19.2483 40.845 18.6163 40.6346C17.643 40.3107 16.1171 39.9863 14.8729 40.5466C13.4044 41.2078 13.3649 43.402 13.4466 44.5155C13.4749 44.9008 13.3801 45.286 13.172 45.6127C13.0521 45.801 12.9562 46.0001 12.8796 46.1974C12.6307 46.8371 12.5582 47.5309 12.6514 48.2103L12.9975 50.734C12.9975 54.3622 14.9328 56.8284 16.5789 58.1078C17.4382 58.7755 18.4985 59.1383 19.5905 59.1383C20.6827 59.1383 21.7431 58.7755 22.6022 58.1078C24.2484 56.8284 26.1835 54.3624 26.1835 50.734L26.5297 48.2108C26.6225 47.538 26.5525 46.8509 26.3096 46.2163Z" fill="#F9BA8F"/>
<path d="M21.3876 58.1068C19.7414 56.8274 17.8063 54.3614 17.8063 50.7329L17.4601 48.2092C17.367 47.5298 17.4395 46.8361 17.6883 46.1964C17.765 45.9993 17.8609 45.8 17.9808 45.6117C18.1889 45.285 18.2835 44.8997 18.2553 44.5145C18.1814 43.5077 18.2069 41.6177 19.2979 40.7759C19.0676 40.7538 18.8392 40.7075 18.6173 40.6336C17.644 40.3098 16.1181 39.9853 14.8738 40.5456C13.4053 41.2068 13.3658 43.401 13.4475 44.5145C13.4759 44.8997 13.3811 45.285 13.173 45.6117C13.0531 45.8 12.9572 45.9991 12.8805 46.1964C12.6317 46.8361 12.5592 47.5298 12.6523 48.2092L12.9985 50.7329C12.9985 54.3612 14.9338 56.8274 16.5798 58.1068C17.4391 58.7745 18.4995 59.1373 19.5915 59.1373C20.4384 59.1373 21.2657 58.9182 21.9954 58.5089C21.7841 58.3905 21.5805 58.2568 21.3876 58.1068Z" fill="#FCAD6D"/>
</svg>
