<svg width="87" height="87" viewBox="0 0 87 87" fill="none" xmlns="http://www.w3.org/2000/svg">
<path d="M44.3823 79.0168L77.1175 71.3877C83.2865 63.9344 86.9948 54.3673 86.9948 43.933C86.9948 20.1478 67.7287 0.866211 43.9627 0.866211C20.1967 0.866211 0.930664 20.1478 0.930664 43.933C0.930664 54.4674 4.71201 64.1165 10.9876 71.6002L44.3823 79.0168Z" fill="#FFC839"/>
<path d="M19.6522 73.9102C21.4241 75.2872 23.6108 76.0352 25.8629 76.0352C28.1149 76.0352 30.3014 75.2872 32.0733 73.9102C33.3829 72.8924 34.7796 71.5069 36.0034 69.7635C35.6613 69.664 35.3153 69.5701 34.9649 69.4822C34.5871 69.3875 34.2551 69.16 34.0406 68.8575C33.0525 67.4623 32.7787 65.3055 32.7251 63.7412C32.0318 64.5493 31.3043 65.225 30.6093 65.7652C27.8216 67.9318 23.9004 67.929 21.1162 65.7652C20.421 65.225 19.6937 64.5491 19.0004 63.7412C18.9453 65.3401 18.6609 67.5585 17.6182 68.9494C17.4402 69.1867 17.1661 69.3806 16.8374 69.4622C16.4614 69.5554 16.0904 69.657 15.7227 69.764C16.9462 71.5072 18.3427 72.8924 19.6522 73.9102Z" fill="#FCAD6D"/>
<path d="M25.6093 67.3839C24.017 67.3322 22.4378 66.793 21.1152 65.7652C20.42 65.225 19.6927 64.5491 18.9995 63.7412C18.9443 65.3401 18.66 67.5585 17.6172 68.9494C17.4393 69.1867 17.1651 69.3806 16.8365 69.4622C16.4604 69.5554 16.0895 69.657 15.7217 69.764C16.9452 71.5071 18.3417 72.8924 19.6513 73.91C20.5057 74.5739 21.457 75.09 22.4652 75.4482C24.4334 72.849 25.2615 69.6223 25.6093 67.3839Z" fill="#FD995B"/>
<path d="M38.48 78.6025C40.0658 75.4282 42.5968 74.0617 44.382 73.4751C43.8437 73.3171 43.3859 73.0177 42.621 72.5862C40.4471 71.3592 38.196 70.3808 35.7432 69.6926C34.5451 71.416 33.1704 72.7811 31.8831 73.7815C30.1652 75.1165 28.0452 75.8418 25.8619 75.8418C23.6785 75.8418 21.5585 75.1167 19.8406 73.7815C18.553 72.7809 17.1779 71.4155 15.9799 69.6914C14.2349 70.1818 12.5809 70.827 10.9873 71.6C17.4356 79.2896 26.5188 84.6903 36.846 86.411C37.182 83.6314 37.7084 80.1467 38.48 78.6025Z" fill="#3C58A0"/>
<path d="M18.547 78.6853C20.2676 77.8689 21.5842 76.6569 22.5904 75.2807C21.6051 74.9332 20.6751 74.4299 19.8406 73.7815C18.553 72.7809 17.1779 71.4155 15.9799 69.6914C14.2349 70.1818 12.5809 70.827 10.9873 71.6C13.2125 74.2535 15.7517 76.6341 18.547 78.6853Z" fill="#1C2E7A"/>
<path d="M60.1702 9.95984C61.2453 9.95984 62.1169 9.08761 62.1169 8.01166C62.1169 6.93571 61.2453 6.06348 60.1702 6.06348C59.0952 6.06348 58.2236 6.93571 58.2236 8.01166C58.2236 9.08761 59.0952 9.95984 60.1702 9.95984Z" fill="#4FABF7"/>
<path d="M53.5306 9.95984C54.6057 9.95984 55.4772 9.08761 55.4772 8.01166C55.4772 6.93571 54.6057 6.06348 53.5306 6.06348C52.4555 6.06348 51.584 6.93571 51.584 8.01166C51.584 9.08761 52.4555 9.95984 53.5306 9.95984Z" fill="#4FABF7"/>
<path d="M46.889 9.95984C47.9641 9.95984 48.8356 9.08761 48.8356 8.01166C48.8356 6.93571 47.9641 6.06348 46.889 6.06348C45.8139 6.06348 44.9424 6.93571 44.9424 8.01166C44.9424 9.08761 45.8139 9.95984 46.889 9.95984Z" fill="#4FABF7"/>
<path d="M74.586 50.3633C74.6115 51.7581 74.4738 53.1865 74.3248 54.1391C73.6216 57.2411 72.6062 59.942 71.3075 62.1663C70.7186 63.1749 69.9841 64.0916 69.1238 64.8912L69.0137 64.9937V65.6884C69.0137 66.4086 69.2933 67.0745 69.7693 67.6878C72.4343 67.5266 74.6998 66.9862 76.4857 66.3708C78.6354 65.6299 79.5763 63.0797 78.4018 61.1313C75.6363 56.5438 76.0484 50.3633 76.0484 50.3633H74.586Z" fill="#2A428C"/>
<path d="M78.402 61.1315C78.1425 60.7012 77.9111 60.2567 77.7045 59.8048C74.4859 61.6733 73.1997 59.0257 73.1997 59.0257C73.1997 59.0257 73.1166 58.9037 72.9642 58.6768C72.4778 59.9419 71.9253 61.1087 71.3075 62.1664C70.7186 63.175 69.9839 64.0917 69.1238 64.8913L69.0137 64.9938V65.6885C69.0137 66.4087 69.2933 67.0747 69.7693 67.6878C72.4343 67.5266 74.6998 66.9863 76.4857 66.3709C78.6356 65.6301 79.5765 63.0797 78.402 61.1315Z" fill="#1C2E7A"/>
<path d="M51.3121 66.3714C53.0979 66.9868 55.3636 67.527 58.0286 67.6884C58.5048 67.0751 58.7844 66.409 58.7844 65.689V64.8358L58.679 64.734C57.8918 63.9734 57.2134 63.1098 56.663 62.1671C55.3636 59.9412 54.3486 57.2415 53.6464 54.143C53.4925 53.2446 53.3536 51.7927 53.3845 50.3643H51.7497C51.7497 50.3643 52.1617 56.5445 49.3963 61.1323C48.2216 63.0801 49.1627 65.6305 51.3121 66.3714Z" fill="#1C2E7A"/>
<path d="M70.2291 32.5528C68.5721 31.6973 66.5119 31.1035 63.9846 31.1035C61.4573 31.1035 59.3971 31.6971 57.7401 32.5528C54.1129 34.4256 51.8779 38.1443 51.8779 42.1568V47.1066L51.8781 47.1082C52.4502 47.0949 53.083 47.2824 53.4907 47.5544C53.641 47.0623 53.8465 46.6364 54.1245 46.323C54.3746 46.0409 54.5317 45.6918 54.5427 45.3184C54.5854 43.8895 54.9601 40.5126 57.4743 39.22C58.1748 38.8599 59.0307 39.1346 59.4241 39.8173C60.9386 42.4453 64.4715 45.9083 72.3278 44.4325C72.8849 44.3279 73.4085 44.7424 73.4259 45.3096C73.4261 45.3126 73.4261 45.3156 73.4261 45.3186C73.4372 45.692 73.5942 46.0411 73.8445 46.3232C74.1223 46.6366 74.328 47.0627 74.4782 47.5545C74.8858 47.2826 75.5187 47.095 76.0907 47.1084L76.0909 47.1068V42.157C76.0912 38.1443 73.8562 34.4256 70.2291 32.5528Z" fill="#2A428C"/>
<path d="M63.8335 43.5507C59.9396 36.1058 67.2555 31.4673 67.2555 31.4673C66.2644 31.2379 65.1772 31.1045 63.9846 31.1045C61.4573 31.1045 59.3971 31.6981 57.7401 32.5538C54.1129 34.4266 51.8779 38.1452 51.8779 42.1578V47.1076L51.8781 47.1092C52.4502 47.0958 53.083 47.2834 53.4907 47.5553C53.641 47.0633 53.8465 46.6374 54.1244 46.324C54.3745 46.0419 54.5315 45.6928 54.5427 45.3194C54.5854 43.8905 54.9601 40.5135 57.4743 39.221C58.1748 38.8608 59.0307 39.1356 59.4241 39.8183C60.2428 41.239 61.6535 42.9024 64.0162 43.8989C63.9553 43.7825 63.8943 43.6667 63.8335 43.5507Z" fill="#1C2E7A"/>
<path d="M53.3917 54.191C53.3917 54.191 52.7349 50.0318 53.4913 47.5549C52.805 47.0972 51.4791 46.8736 50.8828 47.457C49.662 48.6514 50.5565 50.4553 50.9845 51.5947C51.1159 51.9445 51.2007 52.2983 51.239 52.6529C51.3223 53.4232 51.7396 54.5506 53.47 54.5241C53.444 54.413 53.4173 54.3038 53.3917 54.191Z" fill="#FD995B"/>
<path d="M77.0869 47.4561C76.4906 46.8726 75.1647 47.0961 74.4785 47.554C75.2348 50.0309 74.5781 54.19 74.5781 54.19C74.5525 54.3029 74.5258 54.4121 74.4996 54.5232C76.23 54.5497 76.6471 53.4222 76.7306 52.652C76.7689 52.2974 76.8537 51.9436 76.9851 51.5938C77.4133 50.4544 78.3078 48.6505 77.0869 47.4561Z" fill="#FCAD6D"/>
<path d="M23.5672 31.2467C16.6753 32.1865 16.0201 36.0972 16.0172 37.532C16.0165 37.8329 15.8499 38.1117 15.5796 38.2434C11.9947 39.9887 13.9276 48.4007 13.9276 48.4007C14.2876 48.4248 14.8275 48.734 15.1086 48.8702C15.1774 48.4415 15.2898 48.0196 15.4484 47.6116C15.5693 47.3008 15.7205 46.9867 15.9095 46.6902C16.2374 46.1755 16.3867 45.5682 16.3421 44.961C16.2132 43.2062 16.1122 39.9113 18.4268 38.8691C20.3876 37.9862 22.793 38.4974 24.3268 39.0078C25.3231 39.3393 26.402 39.3393 27.3983 39.0078C28.9321 38.4974 31.3375 37.986 33.2983 38.8691C35.6062 39.9083 35.5116 43.1865 35.3841 44.9461C35.3398 45.5578 35.4851 46.1713 35.8154 46.69C36.0106 46.9962 36.1653 47.3209 36.2881 47.6415C36.4407 48.0402 36.5492 48.4518 36.6163 48.8702C36.9706 48.6985 37.6401 48.3481 38.0733 48.4093C38.1263 46.5699 38.296 44.5871 38.296 44.5871C40.3381 34.5759 30.988 30.2348 23.5672 31.2467Z" fill="#2A428C"/>
<path d="M23.5672 31.2472C16.6753 32.1869 16.0201 36.0977 16.0172 37.5324C16.0165 37.8333 15.8499 38.1121 15.5796 38.2438C11.9947 39.9891 13.9276 48.4011 13.9276 48.4011C14.2876 48.4252 14.8275 48.7344 15.1086 48.8706C15.1774 48.4419 15.2898 48.02 15.4484 47.612C15.5693 47.3013 15.7205 46.9871 15.9095 46.6906C16.2374 46.1759 16.3867 45.5686 16.3421 44.9614C16.2132 43.2066 16.1122 39.9118 18.4268 38.8696C20.3876 37.9866 22.793 38.4978 24.3268 39.0083C24.7464 39.1478 25.1808 39.2252 25.6174 39.2471C25.5505 39.1324 25.479 39.0183 25.3991 38.9058C22.4424 34.7468 26.5524 31.7162 27.3456 31.1865C26.0734 31.0598 24.794 31.0798 23.5672 31.2472Z" fill="#1C2E7A"/>
<path d="M38.6836 48.6481C38.1468 48.1558 37.0775 48.4054 36.6152 48.7068C36.7166 49.3381 36.7224 49.9839 36.6347 50.6215L36.0892 54.5982C36.0892 54.9188 36.0792 55.2332 36.0605 55.5423C37.3908 55.9439 38.0516 54.7486 38.163 53.9282C38.2109 53.5751 38.2892 53.2271 38.398 52.8875C38.7519 51.7814 40.0284 49.8816 38.6836 48.6481Z" fill="#FCAD6D"/>
<path d="M13.0399 48.6481C13.5766 48.1558 14.6459 48.4054 15.1082 48.7068C15.0069 49.3381 15.0011 49.9839 15.0887 50.6215L15.6342 54.5982C15.6342 54.9188 15.6444 55.2332 15.6629 55.5423C14.3326 55.9439 13.6716 54.7486 13.5605 53.9282C13.5125 53.5751 13.4342 53.2271 13.3255 52.8875C12.9715 51.7814 11.695 49.8816 13.0399 48.6481Z" fill="#FD995B"/>
<path d="M36.4511 47.4779C36.3283 47.1572 36.1736 46.8326 35.9784 46.5262C35.648 46.0075 35.5028 45.394 35.5471 44.7823C35.6744 43.0227 35.6061 39.5814 33.2982 38.5422C31.3373 37.6593 28.9323 38.1704 27.3984 38.6809C26.4024 39.0124 25.3227 39.0124 24.3265 38.6809C22.7926 38.1704 20.3874 37.6593 18.4268 38.5422C16.1122 39.5844 16.0502 43.0426 16.1789 44.7974C16.2235 45.4045 16.0742 46.0117 15.7463 46.5265C15.5573 46.8233 15.4063 47.1372 15.2854 47.448C14.8932 48.4563 14.7789 49.5496 14.9259 50.6203L15.4716 54.5979C15.4716 60.3162 18.5218 64.2029 21.1162 66.2193C22.4703 67.2717 24.1415 67.8435 25.8626 67.8435C27.5837 67.8435 29.2549 67.2719 30.6091 66.2193C33.2035 64.2031 36.2536 60.3162 36.2536 54.5979L36.7992 50.6212C36.9444 49.5611 36.8343 48.4782 36.4511 47.4779Z" fill="#F9BA8F"/>
<path d="M28.6923 66.2193C26.0979 64.2031 23.0477 60.3162 23.0477 54.5979L22.502 50.6203C22.3552 49.5496 22.4695 48.4563 22.8616 47.448C22.9824 47.1372 23.1336 46.8233 23.3224 46.5265C23.6504 46.0119 23.7997 45.4045 23.755 44.7974C23.6386 43.2106 23.6786 40.2318 25.3982 38.905C25.0353 38.8704 24.675 38.7973 24.3255 38.6809C22.7917 38.1704 20.3865 37.6593 18.4258 38.5422C16.1112 39.5844 16.0492 43.0426 16.178 44.7974C16.2226 45.4045 16.0733 46.0117 15.7454 46.5265C15.5564 46.8233 15.4053 47.1372 15.2845 47.448C14.8923 48.4563 14.7779 49.5496 14.9249 50.6203L15.4707 54.5979C15.4707 60.3162 18.5208 64.2029 21.1152 66.2193C22.4694 67.2717 24.1406 67.8435 25.8617 67.8435C27.1964 67.8435 28.5001 67.4983 29.6502 66.8532C29.3172 66.6665 28.9965 66.4557 28.6923 66.2193Z" fill="#FCAD6D"/>
<path d="M46.7853 24.3445C47.197 23.3504 46.7255 22.2103 45.7322 21.7983C44.7388 21.3862 43.5997 21.858 43.1879 22.8522C42.7762 23.8464 43.2477 24.9864 44.241 25.3985C45.2344 25.8106 46.3735 25.3387 46.7853 24.3445Z" fill="#E9EFFF"/>
<path d="M36.3818 23.5947C36.3818 24.6706 37.2534 25.5429 38.3284 25.5429C39.4035 25.5429 40.2751 24.6706 40.2751 23.5947C40.2751 22.5187 39.4035 21.6465 38.3284 21.6465C37.2532 21.6467 36.3818 22.5189 36.3818 23.5947Z" fill="#E9EFFF"/>
<path d="M33.5001 24.3465C33.9119 23.3523 33.4404 22.2123 32.447 21.8002C31.4536 21.3881 30.3145 21.86 29.9028 22.8542C29.491 23.8484 29.9625 24.9884 30.9559 25.4005C31.9493 25.8125 33.0884 25.3407 33.5001 24.3465Z" fill="#E9EFFF"/>
<path d="M53.0644 71.0977C54.9848 74.3869 57.8931 76.945 61.4749 78.4959C63.0792 79.1903 64.9187 79.1905 66.5226 78.4959C70.1044 76.945 73.0127 74.3869 74.9331 71.0977C75.0097 70.9667 75.0845 70.8329 75.1595 70.6995C72.151 69.5325 69.3727 67.877 69.3727 65.7167C69.3727 64.9568 69.3727 65.1844 69.3727 64.6924C68.0487 65.877 65.7784 67.3861 63.9086 67.4314C62.0387 67.3861 59.7684 65.877 58.4444 64.6924C58.4444 66.1051 58.8191 67.8055 54.3824 69.9612C53.8843 70.2033 53.353 70.4315 52.8076 70.6459C52.8926 70.7973 52.9776 70.949 53.0644 71.0977Z" fill="#FCAD6D"/>
<path d="M58.4444 64.6924C58.4444 66.1051 58.8191 67.8055 54.3824 69.9612C53.8843 70.2033 53.353 70.4315 52.8076 70.6459C52.8926 70.7974 52.9776 70.9491 53.0644 71.0979C54.3652 73.3259 56.1205 75.2169 58.2301 76.6882C61.7898 74.071 63.1472 70.0664 63.6651 67.4142C61.845 67.2539 59.7117 65.8262 58.4444 64.6924Z" fill="#FD995B"/>
<path d="M43.9627 86.9992C57.3027 86.9992 69.2242 80.9237 77.1175 71.3872C76.3332 71.1364 75.5272 70.8523 74.7449 70.5344C74.6446 70.7147 74.5435 70.8936 74.4407 71.0698C72.6062 74.2119 69.8281 76.6556 66.4064 78.1372C64.8742 78.8006 63.1171 78.8006 61.5844 78.1372C58.163 76.6558 55.3847 74.2119 53.5501 71.0698C53.4372 70.8762 53.3257 70.6801 53.2159 70.4814C49.6673 71.9453 45.2852 72.7961 45.2668 72.8007C43.6611 73.1092 40.1371 74.2316 38.129 78.2506C37.3307 79.8485 36.7948 83.5237 36.4609 86.3457C38.8971 86.7744 41.4036 86.9992 43.9627 86.9992Z" fill="#FC90CE"/>
<path d="M55.8624 78.0511C56.8771 77.6062 57.765 77.0622 58.542 76.4512C56.5009 75.04 54.8047 73.2185 53.5501 71.0698C53.4372 70.8762 53.3257 70.6801 53.2159 70.4814C49.6673 71.9454 45.2852 72.7961 45.2668 72.8007C43.6611 73.1092 40.1371 74.2316 38.129 78.2506C37.3307 79.8485 36.7948 83.5237 36.4609 86.3457C38.8972 86.7746 41.4038 86.9994 43.9629 86.9994C45.2814 86.9994 46.5855 86.9377 47.8738 86.8215C47.9128 81.3491 48.4548 81.2996 55.8624 78.0511Z" fill="#F964B2"/>
<path d="M73.5138 45.316C73.5084 45.1343 73.497 44.9145 73.4757 44.669C73.412 44.5769 73.3357 44.4925 73.2465 44.4206C72.9755 44.2025 72.6228 44.1144 72.2814 44.1784C64.79 45.5855 61.2777 42.5132 59.6494 39.6882C59.352 39.1721 58.8369 38.8613 58.2908 38.8105C57.8285 38.9389 57.4038 39.131 57.0183 39.388C54.8232 40.8508 54.4965 44.0209 54.4578 45.316C54.4478 45.6563 54.3106 45.9849 54.0611 46.2661C52.6865 47.8163 52.9876 52.3452 53.3083 54.2099C54.0186 57.3472 55.0473 60.0827 56.3655 62.3408C57.7038 64.6332 59.7307 66.4159 62.2267 67.4968C63.3448 67.9807 64.6267 67.9807 65.7446 67.4968C68.2408 66.4159 70.2675 64.6332 71.6059 62.3408C72.924 60.0834 73.9528 57.3477 74.6644 54.2044C74.9725 52.2443 75.3006 47.8343 73.9103 46.2663C73.661 45.9847 73.524 45.6562 73.5138 45.316Z" fill="#F9BA8F"/>
<path d="M65.5526 62.3405C64.2343 60.0824 63.2056 57.3469 62.4955 54.2097C62.1747 52.345 61.8737 47.8162 63.2482 46.266C63.4977 45.9847 63.6348 45.6564 63.645 45.316C63.6577 44.8887 63.7024 44.257 63.8345 43.5501C61.7781 42.6064 60.4724 41.1161 59.6494 39.6882C59.352 39.1721 58.8369 38.8613 58.291 38.8105C57.8287 38.9389 57.404 39.131 57.0183 39.388C54.8232 40.8508 54.4965 44.0211 54.4578 45.316C54.4476 45.6564 54.3106 45.9849 54.0611 46.266C52.6865 47.8162 52.9876 52.345 53.3083 54.2097C54.0184 57.347 55.0473 60.0826 56.3655 62.3405C57.7038 64.6328 59.7307 66.4156 62.2267 67.4965C63.3448 67.9804 64.6267 67.9804 65.7446 67.4965C66.7751 67.0502 67.7242 66.4826 68.5793 65.8106C67.3633 64.855 66.3384 63.6864 65.5526 62.3405Z" fill="#FCAD6D"/>
</svg>
