<svg width="87" height="83" viewBox="0 0 87 83" fill="none" xmlns="http://www.w3.org/2000/svg">
<path d="M43.9627 3.57129C20.1967 3.57129 0.930664 21.1738 0.930664 42.8876C0.930664 52.7674 4.92014 61.7952 11.5065 68.7019L25.3929 78.3637C31.0149 80.8247 37.3125 82.2038 43.9627 82.2038C67.7287 82.2038 86.9948 64.6014 86.9948 42.8876C86.9948 21.1738 67.7287 3.57129 43.9627 3.57129Z" fill="#FFC839"/>
<path d="M46.7502 67.6418L46.642 67.4611C46.0158 66.4158 46.4394 65.0924 47.5836 64.5203L47.7153 64.4545C46.5167 65.0539 44.9994 64.6484 44.3434 63.5535C43.6874 62.4586 44.1312 61.0722 45.3296 60.4729C44.131 61.0722 42.6138 60.6667 41.9576 59.5716C41.3016 58.4766 41.7455 57.0904 42.9439 56.4909C41.7453 57.0902 40.2279 56.6847 39.5719 55.5897C38.9159 54.4947 39.3598 53.1084 40.5583 52.5089L43.7948 50.8902L43.3015 50.0668C42.9391 49.462 42.3103 49.0279 41.5746 48.8745C38.8847 48.314 36.0922 49.305 34.5218 51.3776C33.1072 53.2968 34.5302 50.9563 30.9443 58.4702C30.713 58.9715 30.3029 59.3865 29.7806 59.6479L11.5068 68.7035C15.3453 72.7288 20.0656 76.0331 25.3933 78.3653L38.3021 71.968C38.656 71.791 39.0496 71.6906 39.4527 71.6744L43.377 71.5169C43.7801 71.5007 44.1737 71.4003 44.5276 71.2233L49.7157 68.6284L49.5488 68.6658C48.4913 68.9722 47.3018 68.5625 46.7502 67.6418Z" fill="#FCAD6D"/>
<path d="M54.3495 66.3591L41.4635 44.7871L32.4082 46.6929L46.5054 70.2921C47.6941 72.2712 50.4137 72.9951 52.5799 71.909C54.7459 70.823 55.5382 68.3382 54.3495 66.3591Z" fill="#3C58A0"/>
<path d="M40.5377 52.0208C39.5395 50.3498 40.5628 48.2699 42.593 47.8425L43.2107 47.7125L41.4633 44.7871L32.4082 46.6931L46.5054 70.2923C47.6711 72.2332 50.3092 72.9658 52.4538 71.9687L40.5377 52.0208Z" fill="#2A428C"/>
<path d="M46.4788 67.7776L46.3706 67.5969C45.7443 66.5516 46.1681 65.2281 47.3123 64.6559L53.976 61.3232C55.1201 60.7509 56.5686 61.1382 57.195 62.1835L57.3032 62.3642C57.9295 63.4095 57.5057 64.7329 56.3616 65.3052L49.6978 68.6379C48.5537 69.2101 47.1052 68.8229 46.4788 67.7776Z" fill="#F9BA8F"/>
<path d="M44.0729 63.6885C43.4168 62.5934 43.8607 61.2071 45.0592 60.6077L53.0486 56.6121C54.2471 56.0127 55.7645 56.4182 56.4205 57.5132C57.0765 58.6081 56.6327 59.9944 55.4343 60.5939L47.445 64.5896C46.2462 65.1891 44.7289 64.7834 44.0729 63.6885Z" fill="#F9BA8F"/>
<path d="M41.6871 59.7066C41.0311 58.6115 41.4749 57.2252 42.6733 56.6258L51.1597 52.3816C52.3583 51.7823 53.8756 52.1878 54.5316 53.2827C55.1877 54.3778 54.7438 55.7641 53.5454 56.3634L45.059 60.6076C43.8605 61.207 42.3431 60.8015 41.6871 59.7066Z" fill="#F9BA8F"/>
<path d="M51.1031 49.8229C50.4471 48.7278 48.9297 48.3223 47.7311 48.9217L40.2877 52.6442C39.0891 53.2435 38.6453 54.6298 39.3015 55.7249C39.9575 56.82 41.4749 57.2255 42.6734 56.626L50.1167 52.9035C51.3152 52.3041 51.7591 50.9179 51.1031 49.8229Z" fill="#F9BA8F"/>
<path d="M30.0615 59.4819C30.1729 60.9029 30.837 63.1012 33.803 63.6133C35.7754 63.9538 37.7716 61.6639 37.7716 61.6639C40.2681 58.4772 40.2804 56.125 40.1111 55.1005C40.0963 55.0118 40.2274 54.9717 40.2746 55.0503L40.9113 56.1129C41.1342 56.4849 41.4258 56.8003 41.7632 57.0546C42.5628 57.5867 43.6574 57.6853 44.5827 57.2226C45.4386 56.7945 45.9309 55.996 45.9527 55.1644C45.9778 54.208 45.5076 53.7896 43.3014 50.0658C43.1344 49.7872 42.8887 49.5154 42.5809 49.3025C42.5799 49.3018 42.579 49.301 42.5781 49.3004C42.2899 49.1014 41.9478 48.9513 41.5747 48.8735C38.8848 48.313 36.0923 49.3041 34.5219 51.3766C33.1073 53.2958 34.5303 50.9553 30.9445 58.4692C30.7564 58.8765 30.4492 59.2248 30.0615 59.4819Z" fill="#FCAD6D"/>
<path d="M42.8469 54.0471L43.9818 55.9411C44.2808 56.44 44.9398 56.6493 45.506 56.4504C45.785 56.0692 45.9401 55.6222 45.952 55.1649C45.9743 54.3155 45.5861 53.921 44.439 51.9668L43.3366 52.5181C42.7415 52.8155 42.5212 53.5037 42.8469 54.0471Z" fill="#F9DFCD"/>
<path d="M34.7753 62.7838C34.6086 62.5028 34.6685 62.1441 34.9411 61.9225C39.4696 58.2413 38.799 54.1497 38.7918 54.1088C38.7231 53.7249 39.0084 53.363 39.4285 53.3003C39.8488 53.2377 40.2451 53.4982 40.3132 53.882C40.3485 54.0802 41.1206 58.7843 35.9659 62.9748C35.6479 63.2333 35.1606 63.2073 34.8777 62.9168C34.8371 62.8753 34.803 62.8306 34.7753 62.7838Z" fill="#FD995B"/>
<path d="M28.1366 46.0487L23.0664 25.9381C23.0326 25.804 23.0174 25.6702 23.0165 25.5381C17.0317 27.0868 13.3683 32.6716 14.7799 38.2708C16.1915 43.8701 22.1602 47.4279 28.2832 46.4283C28.2209 46.3093 28.1705 46.1828 28.1366 46.0487Z" fill="#E9EFFF"/>
<path d="M16.0137 41.169C18.4191 45.0364 23.2997 47.2417 28.2828 46.4284C28.2203 46.3093 28.1699 46.1829 28.136 46.0487L26.5953 39.9377C26.4605 39.8738 26.3214 39.7994 26.1781 39.7129C26.1785 39.7129 21.7646 43.9712 16.0137 41.169Z" fill="#D3DCFB"/>
<path d="M56.4412 12.0498C51.828 16.9882 45.7762 20.6028 39.0156 22.4929C39.0241 22.5207 39.0342 22.5476 39.0414 22.576L44.1116 42.6866C44.1188 42.715 44.1225 42.7432 44.1283 42.7716C51.1126 41.769 58.2852 42.6004 64.7983 45.1973L75.7055 49.5462C75.0642 47.0023 64.8083 6.32312 64.1669 3.7793L56.4412 12.0498Z" fill="#E9EFFF"/>
<path d="M59.7294 8.52947L65.2064 28.7559C66.0993 32.0536 63.2127 35.205 59.5048 34.9511C55.1231 34.651 49.2406 34.7596 42.8613 36.2981C42.8613 36.2981 42.7835 36.4759 42.6016 36.6977L44.1115 42.6866C44.1187 42.715 44.1226 42.7432 44.1282 42.7716C51.1125 41.769 58.2851 42.6004 64.7982 45.1973L75.7054 49.5462C75.0641 47.0023 64.8082 6.32312 64.1668 3.7793L59.7294 8.52947Z" fill="#D3DCFB"/>
<path d="M81.1916 20.9427C75.9549 21.2076 72.5127 19.0127 72.5127 19.0127C72.9246 20.6466 75.5017 30.8686 75.9164 32.5133C75.9164 32.5133 77.9607 29.1638 82.7966 27.3088C83.5734 27.0108 84.0111 26.2532 83.8219 25.503L82.9784 22.1568C82.7892 21.4066 82.0329 20.9002 81.1916 20.9427Z" fill="#E9EFFF"/>
<path d="M83.3258 23.5353C82.416 23.8713 81.6105 24.2263 80.9123 24.5755C79.0467 25.5083 76.7233 24.5554 76.2459 22.6619C76.0358 21.8288 75.8282 21.0053 75.6544 20.3157C73.6675 19.7477 72.5127 19.0127 72.5127 19.0127C72.9246 20.6466 75.5017 30.8686 75.9164 32.5133C75.9164 32.5133 77.9607 29.1638 82.7966 27.3088C83.5736 27.0108 84.0111 26.2532 83.822 25.503L83.3258 23.5353Z" fill="#D3DCFB"/>
<path d="M78.6587 52.3279C77.3825 52.5965 76.1098 51.8691 75.8157 50.7031L63.7124 2.69618C63.4184 1.53018 64.2146 0.367389 65.4908 0.0987562C66.767 -0.169876 68.0397 0.557549 68.3337 1.72355L80.437 49.7304C80.731 50.8964 79.9348 52.0592 78.6587 52.3279Z" fill="#FF4155"/>
<path d="M80.4374 49.7306L75.6576 30.7715C75.4712 31.6591 74.7325 32.4072 73.7066 32.6232C72.6543 32.8446 71.6052 32.4419 71.0205 31.6814L75.8162 50.7031C76.1102 51.8691 77.3829 52.5965 78.6591 52.3279C79.9353 52.0594 80.7314 50.8964 80.4374 49.7306Z" fill="#E80054"/>
<path d="M36.9902 21.1368L24.2216 23.8241C23.1472 24.0502 22.4768 25.0292 22.7242 26.0108L27.7944 46.1214C28.0419 47.103 29.1135 47.7153 30.1879 47.4892L42.9565 44.8019C44.0309 44.5758 44.7013 43.5968 44.4537 42.6152L39.3835 22.5047C39.1362 21.5232 38.0646 20.9107 36.9902 21.1368Z" fill="#FF4155"/>
<path d="M39.6274 37.3856L29.6299 39.4897C29.6299 39.4897 28.4374 41.0766 26.1787 39.7135L27.7942 46.1214C28.0417 47.103 29.1133 47.7154 30.1877 47.4893L42.9563 44.802C44.0307 44.5759 44.7009 43.5968 44.4535 42.6152L42.8609 36.2988C42.8609 36.2988 42.0718 38.1061 39.6274 37.3856Z" fill="#E80054"/>
<path d="M30.6625 23.9134C30.0627 23.9134 29.5205 23.5364 29.38 22.9797L28.5075 19.5191C28.3442 18.8715 28.7866 18.2252 29.4955 18.0762C30.2042 17.9261 30.9117 18.3312 31.0749 18.9788L31.9473 22.4394C32.1106 23.0871 31.6682 23.7333 30.9593 23.8824C30.8599 23.9033 30.7603 23.9134 30.6625 23.9134Z" fill="#BEC8F7"/>
<path d="M27.8731 20.606C27.2733 20.606 26.7311 20.2291 26.5906 19.6725C26.4272 19.025 26.8696 18.3789 27.5785 18.2298L31.2937 17.4481C32.0027 17.2984 32.7097 17.7029 32.873 18.3506C33.0364 18.9982 32.5939 19.6443 31.885 19.7933L28.1699 20.575C28.0705 20.596 27.9711 20.606 27.8731 20.606Z" fill="#E9EFFF"/>
<path d="M26.5105 27.1154C26.3471 26.4678 26.7896 25.8217 27.4985 25.6727L34.9287 24.1093C35.6376 23.9595 36.3447 24.3643 36.5081 25.0118C36.6714 25.6593 36.229 26.3055 35.5201 26.4545L28.0898 28.0179C27.3825 28.1671 26.674 27.764 26.5105 27.1154Z" fill="#CC0053"/>
<path d="M27.5495 31.2402C27.3862 30.5926 27.8286 29.9465 28.5375 29.7975L35.9678 28.2341C36.6767 28.0849 37.3838 28.4891 37.5471 29.1366C37.7105 29.7842 37.268 30.4303 36.5592 30.5793L29.1289 32.1427C28.4218 32.2919 27.7131 31.8889 27.5495 31.2402Z" fill="#CC0053"/>
<path d="M28.5896 35.3643C28.4262 34.7168 28.8685 34.0707 29.5776 33.9216L37.0078 32.3581C37.7169 32.2089 38.4238 32.6131 38.5872 33.2606C38.7505 33.9082 38.3083 34.5543 37.5992 34.7033L30.1689 36.2668C29.4618 36.416 28.7533 36.013 28.5896 35.3643Z" fill="#CC0053"/>
<path d="M29.6296 39.4885C29.4663 38.8409 29.9085 38.1948 30.6176 38.0458L38.0479 36.4823C38.7569 36.3327 39.464 36.7372 39.6272 37.3847C39.7905 38.0323 39.3483 38.6784 38.6392 38.8274L31.209 40.391C30.5019 40.5402 29.7931 40.1373 29.6296 39.4885Z" fill="#CC0053"/>
<path d="M30.6697 43.6134C30.5063 42.9659 30.9487 42.3198 31.6576 42.1707L39.0879 40.6074C39.7964 40.4575 40.5041 40.8621 40.6672 41.5099C40.8306 42.1574 40.3882 42.8035 39.6793 42.9526L32.249 44.5159C31.5419 44.6652 30.8332 44.2623 30.6697 43.6134Z" fill="#CC0053"/>
<path d="M38.3021 71.9679C26.338 70.7359 30.0619 59.4829 30.0619 59.4824C29.972 59.5421 29.8789 59.5984 29.7806 59.6477L11.5068 68.7034C15.3453 72.7287 20.0656 76.033 25.3934 78.3651L38.3021 71.9679Z" fill="#FD995B"/>
</svg>
